<svg xmlns="http://www.w3.org/2000/svg" height="800" width="1200" viewBox="-4.390725 -2.518525 38.05295 15.11115"><path d="M22.9155 5.5652c-.442.7652-1.1218 1.3575-1.5183 1.3233-.3962-.0346-.3595-.6826.0829-1.4478.442-.7652 1.1218-1.3575 1.5183-1.3233.3962.0346.3595.6826-.0829 1.4478m-4.8412 0c-.442.7652-1.1218 1.3575-1.518 1.3233-.3965-.0346-.3594-.6826.0826-1.4478s1.1218-1.3575 1.5183-1.3233c.3966.0346.3595.6826-.0829 1.4478m-9.1164 0c-.442.7652-1.1219 1.3575-1.5184 1.3233-.3962-.0346-.3591-.6826.0829-1.4478.442-.7652 1.1218-1.3575 1.5184-1.3233.3961.0346.3594.6826-.083 1.4478M1.5613 7.0977c-.6107 0-.9765-.4078-.9765-.7857 0-.3944.3309-.8156.9257-.8156.5383.0212.8392.436 1.187.9222-.1453.156-.5534.679-1.1362.679M28.432 6.0767c-.0261-.0713-.09-.1023-.1443-.0727 0 0-.0906.0543-.1383.0801-.503.2865-1.088.557-1.5494.6851.5306-.4607.762-1.0675.7387-1.7176-.0278-.3024-.0486-.738.1023-1.0746.121-.2695.071-.3965-.0716-.3965-.1848 0-.2571.132-.3848.2822-.7945 1.0255-1.4016 1.1829-1.8243 1.1285-.461-.0423-.794-.291-1.034-.5595-.224-.4085-.6865-.6657-1.3754-.6847-1.0887-.005-2.165.5697-2.5467 1.7307-.0522.1464-.083.289-.0932.428-.6321.5531-.9278.77-1.2107.8628l1.6073-2.8476-1.3999.005-.1799.302c-.1443-.2-.4664-.4798-1.137-.497-.9983-.0259-1.935.504-2.413 1.4611-.157.3136-.2014.6315-.1577.9208-.671.761-.9701.8442-1.0922.8435-.1781-.0007-.2219-.2096-.0596-.5084.0931-.1721.7066-1.13.9952-1.5783.3485-.5415-.049-1.0594-.6615-1.0594-.4928 0-1.0597.3157-1.4965.67l.3285-.5589-1.4351-.002-.6438 1.0725c-.0953.1164-.1613.1407-.349.099-.2063-.0676-.4007-.26-.5354-.515-.1898-.4918-.678-.8068-1.4457-.8283-1.088-.005-2.1647.5697-2.5467 1.7307-.1955.5542-.072 1.0573.2758 1.3769-.3626.3785-.8124.4212-1.3567.1252-.3546-.1739-.7889-.4674-1.1339-.8216.533-.4332 1.015-.8812 1.4408-1.6662.6632-1.2223 1.6944-3.4279 2.2041-3.4279.2678 0 .3846.3644.2978.8326 0 0-.004.0303.0003.0448.0198.067.1274.0952.2406.063.1002-.0285.1612-.0846.1725-.1555.1327-.797-.2293-1.4104-.98-1.4104-.6925 0-1.414.4201-1.8246 1.119-.9443 1.6072-1.6492 3.2801-2.201 4.0185-.4215-.4657-1.1433-.707-1.6453-.707-1.1204 0-1.7575.7733-1.7685 1.4774-.0105.6873.6199 1.1632 1.571 1.1293.848-.0296 1.5148-.579 1.5148-.579.527.6086 1.2619.8365 1.8549.9374.4163.0624.769.006 1.0728-.1513.3394-.1644.6272-.3898.8227-.6135.219.1263.5027.1968.8054.1968 1.1962.016 2.275-.7394 2.6073-1.7219.0216-.1065.0593-.2067.0593-.3058.1362.1093.2882.2356.5637.2586L9.9294 7.181l1.4016-.001.6205-1.0668c.545-.8195 1.161-1.4488 1.6479-1.76.3806-.2441.3556-.0307.1824.2399-.138.2159-.8816 1.4136-.9518 1.6058-.2293.6266.29 1.0707.9581 1.0707.4787.077 1.1232-.2437 1.5822-.7062.2078.3813.5959.6512 1.0774.6868.265.0198.5232-.003.7673-.055-.338.5948-1.5445 2.5573-2.7415 2.5573-.456 0-.8568-.3754-.8568-.8696.0123-.5016.381-.8805.8297-.8664h.2014c.109 0 .152-.0632.1831-.1351.0427-.0988-.0137-.1729-.098-.1729l-.2865-.004c-1.1303-.0215-2.0338.333-2.0447 1.156-.0258.8376.8844 1.2136 2.0112 1.2136 2.419 0 4.2534-2.8734 4.2534-2.8734.5454-.111 1.0023-.3947 1.5177-.7944l.0003-.007c.0787.199.2198.387.4368.5627.1965.1594.4543.291.9458.304 1.1874.0308 2.5276-.7873 2.698-2.1836.2445.1104.6428.2377.8495.255.534.0448.824-.072.9758-.1436.061.6273-.0565 1.1427-.3267 1.5046-.1108.175-.2738.2216-.4374.1955-.2075-.0332-.3814-.1616-.3973-.2956.4131-.0395.593-.3003.6177-.5264.0198-.18-.1107-.5729-.5535-.5729-.304 0-.7345.1725-.7345.7987 0 .3944.3507 1.0795 1.5435.9504.9048-.0977 1.1796-.271 2.2556-.7874.1164-.0557.2205-.1267.3239-.194v-.0004c.0543-.0332.0769-.1178.0504-.1898" fill="#ee2722"/><path d="M25.5957 3.3522c.3165.036.6671-.0116 1.0813-.2149 1.4086-.6925 1.3705-2.106 2.1216-3.1266-.3168-.0353-.6667.0123-1.0813.2155-1.4082.6925-1.3705 2.106-2.1216 3.126" fill="#b9d110"/><path d="M25.3284 4.0793c-.222 0-.4632-.0603-.7387-.2346-.937-.5909-.8241-1.5716-1.2838-2.34.2222.0004.4632.0607.7387.2343.9373.5916.8241 1.5716 1.2838 2.3403" fill="#60ba52"/><path d="M28.8341 6.6541h.041c.0475 0 .086-.0159.086-.0543 0-.0342-.025-.0568-.0794-.0568a.1681.1681 0 00-.0476.005zm-.0021.2106h-.0864v-.3715c.0342-.007.0818-.0113.1428-.0113.0702 0 .102.0113.1295.0272.0201.0155.036.0452.036.0815 0 .0406-.0318.0727-.077.0861v.005c.0364.0138.0565.041.0682.0907.0113.0568.018.0794.0271.0928h-.0931c-.0113-.0134-.018-.0473-.0293-.0907-.007-.0406-.0296-.0589-.0772-.0589h-.0406zm-.229-.1947c0 .1654.1224.297.29.297.1633 0 .2833-.1316.2833-.295 0-.1654-.12-.299-.2854-.299-.1655 0-.2879.1336-.2879.297m.6685 0c0 .2106-.1654.3764-.3806.3764-.213 0-.3831-.1658-.3831-.3764 0-.2064.17-.3719.383-.3719.2153 0 .3807.1655.3807.3719" fill="#ee2722"/></svg>